<svg width="80" height="104" viewBox="0 0 80 104" fill="none" xmlns="http://www.w3.org/2000/svg">
<g clip-path="url(#clip0_7011_23462)">
<path d="M4.20537 9.68508C4.31588 6.7056 6.70542 4.31552 9.68487 4.20435L71.8135 1.88612C73.0915 1.83843 74.3484 2.22223 75.3817 2.97571L79.2555 5.80035C79.7234 6.1415 80 6.68567 80 7.2647V97.8443C80 100.998 77.4378 103.551 74.2843 103.54L7.08958 103.305C6.46421 103.303 5.88416 102.978 5.55499 102.446L1.9489 96.6211C1.35357 95.6594 1.05803 94.5422 1.09995 93.412L4.20537 9.68508Z" fill="black" fill-opacity="0.2"/>
<path d="M0.388184 94.2396L72.7506 0.90625L78.317 5.17809L77.7113 95.4243C77.6883 98.8483 74.8997 101.608 71.4757 101.596L4.91893 101.359L0.388184 94.2396Z" fill="#B0A090"/>
<rect width="75.5987" height="97.8641" rx="5.69579" fill="#F5F0EB"/>
<g filter="url(#filter0_f_7011_23462)">
<rect x="2.71832" y="3.49517" width="70.4207" height="91.1327" rx="5.56634" stroke="#D4D1CE" stroke-width="0.2589"/>
</g>
<g clip-path="url(#clip1_7011_23462)">
<path d="M39.8963 93.5538C39.482 93.5538 39.1196 93.3984 38.8089 93.0877C38.3946 92.7771 38.084 92.6217 37.8768 92.6217C37.4626 92.7253 37.1001 92.7771 36.7895 92.7771C36.4788 92.7771 36.1681 92.7771 35.8574 92.7771C32.9578 92.7771 30.7312 92.1557 29.1778 90.913C27.6244 89.7738 26.8477 88.9454 26.8477 88.4276C26.8477 88.1169 26.9513 87.9615 27.1584 87.9615C27.3655 87.9615 27.9869 88.324 29.0225 89.0489C29.9545 89.8774 31.4044 90.2916 33.372 90.2916C33.8898 90.2916 34.3558 90.2916 34.77 90.2916C35.1843 90.1881 35.5985 90.0845 36.0128 89.9809C35.5985 89.5667 35.1843 89.1525 34.77 88.7382C34.4594 88.2204 34.2005 87.7026 33.9934 87.1848C32.3364 86.3564 30.9383 85.9421 29.7992 85.9421C28.9707 85.9421 28.1422 86.1492 27.3137 86.5635L27.0031 86.7188C26.7959 86.7188 26.6924 86.6152 26.6924 86.4081C26.6924 85.8903 27.0031 85.3725 27.6244 84.8547C28.3493 84.2334 29.1778 83.9227 30.1099 83.9227C30.5241 83.9227 30.8866 83.9745 31.1972 84.078C30.4723 83.2496 29.6438 82.5246 28.7118 81.9033C27.8833 81.1784 26.9513 80.5052 25.9157 79.8839C23.8445 78.7447 22.8089 78.0716 22.8089 77.8644C22.8089 77.6573 23.016 77.5538 23.4302 77.5538C25.5014 77.5538 27.0548 77.8644 28.0904 78.4858C27.4691 77.6573 26.7442 76.7771 25.9157 75.845C25.1908 74.913 24.2587 73.8774 23.1196 72.7382C22.4982 73.3596 21.5662 73.6703 20.3234 73.6703C18.0451 73.6703 16.0257 72.6864 14.2652 70.7188C12.5047 68.7512 11.6244 66.5246 11.6244 64.0392C12.5565 63.7285 13.5403 63.5732 14.5759 63.5732C16.7506 63.5732 18.8218 64.2981 20.7895 65.7479C22.8607 67.0942 23.8963 68.8547 23.8963 71.0295C25.4497 71.9615 27.0031 73.3596 28.5565 75.2237C26.7959 69.4243 24.8801 64.8159 22.8089 61.3984C20.8412 57.9809 18.4076 56.2722 15.5079 56.2722C13.2296 56.2722 11.3655 57.2042 9.91568 59.0683C8.46584 61.036 7.68914 62.0198 7.58558 62.0198C7.37846 62.0198 7.2749 61.7609 7.2749 61.2431C7.2749 59.4826 7.99982 57.5149 9.44966 55.3402C11.0031 53.1654 13.2296 52.078 16.1293 52.078C21.4108 52.078 25.2425 56.6865 27.6244 65.9033C26.8995 59.4826 25.6568 54.6153 23.8963 51.3013C22.3429 48.1945 20.4788 46.1751 18.304 45.2431C16.44 44.5182 15.249 44.1557 14.7312 44.1557L14.8866 43.845C14.8866 43.6379 15.4561 43.379 16.5953 43.0683C17.5273 42.6541 18.6147 42.447 19.8574 42.447C23.1713 42.447 25.6568 44.1557 27.3137 47.5732C29.0743 50.8871 29.9545 55.3402 29.9545 60.9324V68.8547C29.9545 73.8256 30.6794 76.8288 32.1293 77.8644C31.0937 75.0683 30.5759 71.6509 30.5759 67.612C30.5759 62.7447 31.249 57.5667 32.5953 52.078C34.0451 46.4858 35.9092 41.1525 38.1875 36.078C40.3623 30.9 41.4497 26.8094 41.4497 23.8062C41.4497 21.3207 40.8801 18.8353 39.7409 16.3499C38.6018 14.0716 38.0322 12.7771 38.0322 12.4664C38.0322 12.3628 38.084 12.311 38.1875 12.311C38.6018 12.311 39.482 12.9842 40.8283 14.3305C42.1746 15.5732 43.4691 17.2819 44.7118 19.4567C45.9545 21.5279 46.5759 23.858 46.5759 26.447C46.5759 29.6573 45.4367 33.489 43.1584 37.9421L37.7215 48.3499C41.3461 44.6217 45.7474 42.7576 50.9254 42.7576C52.5823 42.7576 54.1875 42.9648 55.7409 43.379C57.2943 43.6897 58.071 44.1039 58.071 44.6217C58.071 44.9324 57.6568 45.0877 56.8283 45.0877C55.8963 45.0877 55.2231 45.036 54.8089 44.9324C51.9092 44.9324 48.906 45.6573 45.7992 47.1072C42.6924 48.557 39.9998 50.4211 37.7215 52.6994C35.5468 54.9777 34.2523 57.4114 33.838 60.0004C37.4626 53.269 42.5888 49.9033 49.2167 49.9033C52.5306 49.9033 55.4302 50.7318 57.9157 52.3887C60.5047 53.9421 62.5759 56.2204 64.1293 59.2237C65.5791 62.3305 66.304 64.4534 66.304 65.5926C66.304 65.9033 66.2005 66.0586 65.9934 66.0586H65.838C65.6309 65.9551 64.6471 64.6088 62.8866 62.0198C61.3332 59.6379 59.4173 57.8256 57.139 56.5829C54.8607 55.3402 52.5306 54.7188 50.1487 54.7188C47.249 54.7188 44.5565 55.392 42.071 56.7382C39.6891 58.0845 37.7733 59.7932 36.3234 61.8644C34.8736 63.9356 34.1487 66.1104 34.1487 68.3887V68.8547C35.2879 65.2301 37.1519 62.5894 39.7409 60.9324C42.4335 59.1719 44.5565 58.2916 46.1099 58.2916C46.317 58.2916 46.4723 58.3434 46.5759 58.447C46.4723 58.6541 46.1099 59.1201 45.4885 59.845C44.8671 60.4664 43.9351 61.2431 42.6924 62.1751C40.3105 64.1428 38.6535 66.1622 37.7215 68.2334C36.893 70.201 36.4788 73.3078 36.4788 77.5538C36.7895 74.447 37.7215 72.0651 39.2749 70.4081C40.7247 68.6476 41.7086 67.7674 42.2264 67.7674C42.6406 67.7674 42.8477 68.0263 42.8477 68.5441C42.8477 68.8547 42.7442 69.0619 42.537 69.1654C42.3299 69.1654 41.605 70.3564 40.3623 72.7382C39.016 75.1201 38.3429 77.8127 38.3429 80.8159C38.3429 81.6444 38.3946 82.7835 38.4982 84.2334C38.7053 85.5797 39.016 86.8224 39.4302 87.9615C39.8445 89.1007 40.3623 89.7738 40.9836 89.9809C41.8121 90.1881 42.2264 90.6541 42.2264 91.379C42.2264 92.8288 41.4497 93.5538 39.8963 93.5538ZM55.4302 82.0586C54.7053 82.0586 54.3429 81.3337 54.3429 79.8839C54.3429 78.434 53.7215 77.7091 52.4788 77.7091C51.8574 77.7091 50.9254 77.8644 49.6827 78.1751C48.7506 78.5894 47.8186 78.7965 46.8866 78.7965C44.0904 78.7965 42.6924 77.6573 42.6924 75.379C42.6924 74.6541 42.9513 73.5149 43.4691 71.9615C43.9869 70.4081 44.2458 69.3208 44.2458 68.6994C44.2458 67.6638 43.7798 66.9907 42.8477 66.68C41.8121 66.2657 41.2943 65.7479 41.2943 65.1266C41.2943 64.5052 41.8121 64.1945 42.8477 64.1945C45.7474 64.1945 47.1972 65.3855 47.1972 67.7674C47.1972 67.8709 47.1455 68.0263 47.0419 68.2334C47.0419 68.4405 47.0419 68.6994 47.0419 69.0101C49.2167 67.4567 51.3914 66.68 53.5662 66.68C54.6018 66.68 55.6374 66.8353 56.673 67.146V67.3013C56.673 70.6153 55.2749 73.3078 52.4788 75.379C55.482 75.379 56.9836 76.5182 56.9836 78.7965C56.9836 80.9712 56.4658 82.0586 55.4302 82.0586ZM19.7021 71.3402C20.5306 71.3402 20.9448 70.9259 20.9448 70.0974C20.9448 69.1654 20.3234 68.1816 19.0807 67.146C17.9416 66.1104 16.3364 65.5926 14.2652 65.5926H13.6438C13.851 66.8353 14.5759 68.1298 15.8186 69.4761C17.1649 70.7188 18.4594 71.3402 19.7021 71.3402ZM19.7021 70.0974C18.77 69.7868 17.9416 69.4243 17.2167 69.0101C16.5953 68.4923 15.9739 67.7674 15.3526 66.8353H15.6633C16.2846 66.9389 17.0613 67.3013 17.9933 67.9227C19.0289 68.5441 19.5985 69.269 19.7021 70.0974ZM47.1972 75.6897C48.6471 75.6897 50.1487 74.913 51.7021 73.3596C53.2555 71.8062 54.084 70.3046 54.1875 68.8547H53.8768C52.1163 68.8547 50.304 69.4243 48.44 70.5635C46.5759 71.5991 45.6438 72.8418 45.6438 74.2916C45.6438 75.2237 46.1616 75.6897 47.1972 75.6897ZM47.1972 74.1363C47.4044 73.4114 48.0775 72.6347 49.2167 71.8062C50.3558 70.9777 51.3914 70.5117 52.3234 70.4081C52.3234 70.9259 51.5985 71.7544 50.1487 72.8936C49.4238 73.722 48.44 74.1363 47.1972 74.1363ZM44.8671 93.2431C44.1422 93.2431 43.4173 92.2593 42.6924 90.2916C41.9675 88.324 41.605 86.4599 41.605 84.6994C41.605 83.146 41.9157 81.7479 42.537 80.5052C42.9513 79.4696 43.4173 78.9518 43.9351 78.9518C44.2458 78.9518 44.4011 79.2625 44.4011 79.8839V80.0392C43.9869 80.9712 43.7798 82.2657 43.7798 83.9227C43.7798 85.1654 44.4529 88.0133 45.7992 92.4664C45.7992 92.9842 45.4885 93.2431 44.8671 93.2431Z" fill="#20201E"/>
<path d="M39.8963 93.5538C39.482 93.5538 39.1196 93.3984 38.8089 93.0877C38.3946 92.7771 38.084 92.6217 37.8768 92.6217C37.4626 92.7253 37.1001 92.7771 36.7895 92.7771C36.4788 92.7771 36.1681 92.7771 35.8574 92.7771C32.9578 92.7771 30.7312 92.1557 29.1778 90.913C27.6244 89.7738 26.8477 88.9454 26.8477 88.4276C26.8477 88.1169 26.9513 87.9615 27.1584 87.9615C27.3655 87.9615 27.9869 88.324 29.0225 89.0489C29.9545 89.8774 31.4044 90.2916 33.372 90.2916C33.8898 90.2916 34.3558 90.2916 34.77 90.2916C35.1843 90.1881 35.5985 90.0845 36.0128 89.9809C35.5985 89.5667 35.1843 89.1525 34.77 88.7382C34.4594 88.2204 34.2005 87.7026 33.9934 87.1848C32.3364 86.3564 30.9383 85.9421 29.7992 85.9421C28.9707 85.9421 28.1422 86.1492 27.3137 86.5635L27.0031 86.7188C26.7959 86.7188 26.6924 86.6152 26.6924 86.4081C26.6924 85.8903 27.0031 85.3725 27.6244 84.8547C28.3493 84.2334 29.1778 83.9227 30.1099 83.9227C30.5241 83.9227 30.8866 83.9745 31.1972 84.078C30.4723 83.2496 29.6438 82.5246 28.7118 81.9033C27.8833 81.1784 26.9513 80.5052 25.9157 79.8839C23.8445 78.7447 22.8089 78.0716 22.8089 77.8644C22.8089 77.6573 23.016 77.5538 23.4302 77.5538C25.5014 77.5538 27.0548 77.8644 28.0904 78.4858C27.4691 77.6573 26.7442 76.7771 25.9157 75.845C25.1908 74.913 24.2587 73.8774 23.1196 72.7382C22.4982 73.3596 21.5662 73.6703 20.3234 73.6703C18.0451 73.6703 16.0257 72.6864 14.2652 70.7188C12.5047 68.7512 11.6244 66.5246 11.6244 64.0392C12.5565 63.7285 13.5403 63.5732 14.5759 63.5732C16.7506 63.5732 18.8218 64.2981 20.7895 65.7479C22.8607 67.0942 23.8963 68.8547 23.8963 71.0295C25.4497 71.9615 27.0031 73.3596 28.5565 75.2237C26.7959 69.4243 24.8801 64.8159 22.8089 61.3984C20.8412 57.9809 18.4076 56.2722 15.5079 56.2722C13.2296 56.2722 11.3655 57.2042 9.91568 59.0683C8.46584 61.036 7.68914 62.0198 7.58558 62.0198C7.37846 62.0198 7.2749 61.7609 7.2749 61.2431C7.2749 59.4826 7.99982 57.5149 9.44966 55.3402C11.0031 53.1654 13.2296 52.078 16.1293 52.078C21.4108 52.078 25.2425 56.6865 27.6244 65.9033C26.8995 59.4826 25.6568 54.6153 23.8963 51.3013C22.3429 48.1945 20.4788 46.1751 18.304 45.2431C16.44 44.5182 15.249 44.1557 14.7312 44.1557L14.8866 43.845C14.8866 43.6379 15.4561 43.379 16.5953 43.0683C17.5273 42.6541 18.6147 42.447 19.8574 42.447C23.1713 42.447 25.6568 44.1557 27.3137 47.5732C29.0743 50.8871 29.9545 55.3402 29.9545 60.9324V68.8547C29.9545 73.8256 30.6794 76.8288 32.1293 77.8644C31.0937 75.0683 30.5759 71.6509 30.5759 67.612C30.5759 62.7447 31.249 57.5667 32.5953 52.078C34.0451 46.4858 35.9092 41.1525 38.1875 36.078C40.3623 30.9 41.4497 26.8094 41.4497 23.8062C41.4497 21.3207 40.8801 18.8353 39.7409 16.3499C38.6018 14.0716 38.0322 12.7771 38.0322 12.4664C38.0322 12.3628 38.084 12.311 38.1875 12.311C38.6018 12.311 39.482 12.9842 40.8283 14.3305C42.1746 15.5732 43.4691 17.2819 44.7118 19.4567C45.9545 21.5279 46.5759 23.858 46.5759 26.447C46.5759 29.6573 45.4367 33.489 43.1584 37.9421L37.7215 48.3499C41.3461 44.6217 45.7474 42.7576 50.9254 42.7576C52.5823 42.7576 54.1875 42.9648 55.7409 43.379C57.2943 43.6897 58.071 44.1039 58.071 44.6217C58.071 44.9324 57.6568 45.0877 56.8283 45.0877C55.8963 45.0877 55.2231 45.036 54.8089 44.9324C51.9092 44.9324 48.906 45.6573 45.7992 47.1072C42.6924 48.557 39.9998 50.4211 37.7215 52.6994C35.5468 54.9777 34.2523 57.4114 33.838 60.0004C37.4626 53.269 42.5888 49.9033 49.2167 49.9033C52.5306 49.9033 55.4302 50.7318 57.9157 52.3887C60.5047 53.9421 62.5759 56.2204 64.1293 59.2237C65.5791 62.3305 66.304 64.4534 66.304 65.5926C66.304 65.9033 66.2005 66.0586 65.9934 66.0586H65.838C65.6309 65.9551 64.6471 64.6088 62.8866 62.0198C61.3332 59.6379 59.4173 57.8256 57.139 56.5829C54.8607 55.3402 52.5306 54.7188 50.1487 54.7188C47.249 54.7188 44.5565 55.392 42.071 56.7382C39.6891 58.0845 37.7733 59.7932 36.3234 61.8644C34.8736 63.9356 34.1487 66.1104 34.1487 68.3887V68.8547C35.2879 65.2301 37.1519 62.5894 39.7409 60.9324C42.4335 59.1719 44.5565 58.2916 46.1099 58.2916C46.317 58.2916 46.4723 58.3434 46.5759 58.447C46.4723 58.6541 46.1099 59.1201 45.4885 59.845C44.8671 60.4664 43.9351 61.2431 42.6924 62.1751C40.3105 64.1428 38.6535 66.1622 37.7215 68.2334C36.893 70.201 36.4788 73.3078 36.4788 77.5538C36.7895 74.447 37.7215 72.0651 39.2749 70.4081C40.7247 68.6476 41.7086 67.7674 42.2264 67.7674C42.6406 67.7674 42.8477 68.0263 42.8477 68.5441C42.8477 68.8547 42.7442 69.0619 42.537 69.1654C42.3299 69.1654 41.605 70.3564 40.3623 72.7382C39.016 75.1201 38.3429 77.8127 38.3429 80.8159C38.3429 81.6444 38.3946 82.7835 38.4982 84.2334C38.7053 85.5797 39.016 86.8224 39.4302 87.9615C39.8445 89.1007 40.3623 89.7738 40.9836 89.9809C41.8121 90.1881 42.2264 90.6541 42.2264 91.379C42.2264 92.8288 41.4497 93.5538 39.8963 93.5538ZM55.4302 82.0586C54.7053 82.0586 54.3429 81.3337 54.3429 79.8839C54.3429 78.434 53.7215 77.7091 52.4788 77.7091C51.8574 77.7091 50.9254 77.8644 49.6827 78.1751C48.7506 78.5894 47.8186 78.7965 46.8866 78.7965C44.0904 78.7965 42.6924 77.6573 42.6924 75.379C42.6924 74.6541 42.9513 73.5149 43.4691 71.9615C43.9869 70.4081 44.2458 69.3208 44.2458 68.6994C44.2458 67.6638 43.7798 66.9907 42.8477 66.68C41.8121 66.2657 41.2943 65.7479 41.2943 65.1266C41.2943 64.5052 41.8121 64.1945 42.8477 64.1945C45.7474 64.1945 47.1972 65.3855 47.1972 67.7674C47.1972 67.8709 47.1455 68.0263 47.0419 68.2334C47.0419 68.4405 47.0419 68.6994 47.0419 69.0101C49.2167 67.4567 51.3914 66.68 53.5662 66.68C54.6018 66.68 55.6374 66.8353 56.673 67.146V67.3013C56.673 70.6153 55.2749 73.3078 52.4788 75.379C55.482 75.379 56.9836 76.5182 56.9836 78.7965C56.9836 80.9712 56.4658 82.0586 55.4302 82.0586ZM19.7021 71.3402C20.5306 71.3402 20.9448 70.9259 20.9448 70.0974C20.9448 69.1654 20.3234 68.1816 19.0807 67.146C17.9416 66.1104 16.3364 65.5926 14.2652 65.5926H13.6438C13.851 66.8353 14.5759 68.1298 15.8186 69.4761C17.1649 70.7188 18.4594 71.3402 19.7021 71.3402ZM19.7021 70.0974C18.77 69.7868 17.9416 69.4243 17.2167 69.0101C16.5953 68.4923 15.9739 67.7674 15.3526 66.8353H15.6633C16.2846 66.9389 17.0613 67.3013 17.9933 67.9227C19.0289 68.5441 19.5985 69.269 19.7021 70.0974ZM47.1972 75.6897C48.6471 75.6897 50.1487 74.913 51.7021 73.3596C53.2555 71.8062 54.084 70.3046 54.1875 68.8547H53.8768C52.1163 68.8547 50.304 69.4243 48.44 70.5635C46.5759 71.5991 45.6438 72.8418 45.6438 74.2916C45.6438 75.2237 46.1616 75.6897 47.1972 75.6897ZM47.1972 74.1363C47.4044 73.4114 48.0775 72.6347 49.2167 71.8062C50.3558 70.9777 51.3914 70.5117 52.3234 70.4081C52.3234 70.9259 51.5985 71.7544 50.1487 72.8936C49.4238 73.722 48.44 74.1363 47.1972 74.1363ZM44.8671 93.2431C44.1422 93.2431 43.4173 92.2593 42.6924 90.2916C41.9675 88.324 41.605 86.4599 41.605 84.6994C41.605 83.146 41.9157 81.7479 42.537 80.5052C42.9513 79.4696 43.4173 78.9518 43.9351 78.9518C44.2458 78.9518 44.4011 79.2625 44.4011 79.8839V80.0392C43.9869 80.9712 43.7798 82.2657 43.7798 83.9227C43.7798 85.1654 44.4529 88.0133 45.7992 92.4664C45.7992 92.9842 45.4885 93.2431 44.8671 93.2431Z" fill="#4F8568"/>
<path fill-rule="evenodd" clip-rule="evenodd" d="M20.3235 73.6185C21.5663 73.6185 22.4983 73.3078 23.1197 72.6865C23.5857 72.4016 24.1035 71.7544 23.8964 70.9777C23.8079 70.0239 23.6609 69.2727 23.4351 68.6483C22.9725 67.5728 22.1619 66.6364 21.0035 65.8392C20.9337 65.7919 20.8624 65.7442 20.7896 65.6962C18.8219 64.2463 16.7507 63.5214 14.576 63.5214C13.5404 63.5214 12.5566 63.6768 11.6245 63.9874C11.6245 66.4729 12.5048 68.6994 14.2653 70.667C16.0258 72.6347 18.0452 73.6185 20.3235 73.6185ZM20.9449 70.0457C20.9449 70.8742 20.5307 71.2884 19.7022 71.2884C18.4595 71.2884 17.165 70.6671 15.8187 69.4243C14.576 68.0781 13.851 66.7836 13.6439 65.5408H14.2653C16.3365 65.5408 17.9417 66.0586 19.0808 67.0942C20.3235 68.1298 20.9449 69.1137 20.9449 70.0457Z" fill="#F5511C"/>
<path d="M19.7022 70.0457C18.7701 69.735 17.9417 69.3726 17.2167 68.9583C16.5954 68.4405 15.974 67.7156 15.3527 66.7836H15.6633C16.2847 66.8871 17.0614 67.2496 17.9934 67.8709C19.029 68.4923 19.5986 69.2172 19.7022 70.0457Z" fill="#F5511C"/>
<path fill-rule="evenodd" clip-rule="evenodd" d="M54.343 79.8321C54.343 81.2819 54.7054 82.0069 55.4303 82.0069C56.4659 82.0069 56.9837 80.9195 56.9837 78.7447C56.9837 76.4664 55.4821 75.3272 52.4789 75.3272C55.275 73.256 56.6731 70.5635 56.6731 67.2496V67.0942C55.6375 66.7836 54.6019 66.6282 53.5663 66.6282C51.3915 66.6282 49.2167 67.4049 47.042 68.9583V68.1816C47.1455 67.9745 47.1973 67.8192 47.1973 67.7156C47.1973 65.3337 45.7475 64.1428 42.8478 64.1428C41.8122 64.1428 41.2944 64.4535 41.2944 65.0748C41.2944 65.6962 41.8122 66.214 42.8478 66.6282C43.7799 66.9389 44.2459 67.612 44.2459 68.6476C44.2459 69.269 43.987 70.3564 43.4692 71.9098C42.9514 73.4632 42.6925 74.6023 42.6925 75.3272C42.6925 77.6056 44.0905 78.7447 46.8866 78.7447C47.8187 78.7447 48.7507 78.5376 49.6828 78.1234C50.9255 77.8127 51.8575 77.6573 52.4789 77.6573C53.7216 77.6573 54.343 78.3823 54.343 79.8321ZM51.7022 73.3078C50.1488 74.8612 48.6472 75.6379 47.1973 75.6379C46.1617 75.6379 45.6439 75.1719 45.6439 74.2399C45.6439 72.79 46.576 71.5473 48.44 70.5117C50.3041 69.3726 52.1164 68.803 53.8769 68.803H54.1876C54.0841 70.2528 53.2556 71.7544 51.7022 73.3078ZM49.2167 71.7544C48.0776 72.5829 47.4045 73.3596 47.1973 74.0845C48.44 74.0845 49.4239 73.6703 50.1488 72.8418C51.5986 71.7027 52.3235 70.8742 52.3235 70.3564C51.3915 70.4599 50.3559 70.926 49.2167 71.7544ZM42.6925 90.2399C43.4174 92.2075 44.1423 93.1913 44.8672 93.1913C45.4886 93.1913 45.7993 92.9324 45.7993 92.4146C44.453 87.9616 43.7799 85.1137 43.7799 83.8709C43.7799 82.214 43.987 80.9195 44.4012 79.9874V79.8321C44.4012 79.2107 44.2459 78.9001 43.9352 78.9001C43.4174 78.9001 42.9514 79.4179 42.5371 80.4535C41.9158 81.6962 41.6051 83.0942 41.6051 84.6476C41.6051 86.4082 41.9676 88.2722 42.6925 90.2399Z" fill="#F5511C"/>
<path fill-rule="evenodd" clip-rule="evenodd" d="M24.8281 37.1652C25.553 37.683 26.1226 38.0455 26.5369 38.2526H27.0029C27.9349 37.3206 28.5045 36.1296 28.7116 34.6798C28.7116 33.8513 28.6081 32.5568 28.4009 30.7963C28.2974 28.9322 28.0385 26.6021 27.6242 23.806C27.6242 21.7348 27.7796 20.3885 28.0903 19.7672C28.4009 19.2494 28.5563 18.9387 28.5563 18.8351C28.5563 18.628 28.1938 18.0584 27.4689 17.1264C26.8475 16.0908 26.278 15.573 25.7602 15.573C25.553 15.573 25.3459 15.6248 25.1388 15.7283C24.9317 15.7283 24.7246 15.7801 24.5174 15.8837C24.2068 15.9872 23.8443 16.1944 23.4301 16.505C23.0158 16.7122 22.3945 16.9193 21.566 17.1264L22.8087 14.641L27.6242 14.0196H28.867C29.0741 13.916 29.1776 13.7089 29.1776 13.3982C29.1776 12.984 28.8152 12.7251 28.0903 12.6215C27.3653 12.4144 26.6404 12.3109 25.9155 12.3109L23.2747 13.2429C23.7925 12.1037 24.2585 11.3788 24.6728 11.0681C23.6372 10.861 22.7051 10.7057 21.8767 10.6021C21.0482 10.4986 20.3751 10.4468 19.8573 10.4468C19.443 10.4468 19.2359 10.6539 19.2359 11.0681C20.3751 11.0681 20.9446 11.6377 20.9446 12.7769V13.7089L17.3718 14.641C17.0611 13.7089 16.5433 13.0358 15.8184 12.6215C15.0935 12.2073 14.5757 12.0002 14.265 12.0002C13.9543 12.0002 13.799 12.2591 13.799 12.7769C13.799 13.1911 13.9543 14.0196 14.265 15.2623C12.5045 15.6766 10.8993 15.8837 9.44948 15.8837H8.82812C9.86372 16.7122 10.6922 17.1264 11.3136 17.1264C11.5207 17.1264 11.8831 17.0746 12.4009 16.971C13.0223 16.7639 13.8508 16.6086 14.8864 16.505V17.7477C14.5757 18.4727 13.799 18.8351 12.5563 18.8351H10.6922C11.1064 19.4565 11.3136 20.9063 11.3136 23.1846C11.3136 27.4306 10.8993 30.641 10.0708 32.8157C10.0708 34.3691 10.6922 35.6118 11.9349 36.5439C12.3492 35.9225 12.5563 35.3011 12.5563 34.6798C12.7634 33.4371 12.9187 32.039 13.0223 30.4856C13.1259 28.8287 13.1776 27.0164 13.1776 25.0487C14.0061 24.738 14.6793 24.5827 15.1971 24.5827C15.3006 24.6863 15.5077 24.738 15.8184 24.738H16.1291C16.5433 24.738 16.854 24.3756 17.0611 23.6507C17.1647 22.9257 17.5272 22.0455 18.1485 21.0099C18.5628 20.1814 18.7699 19.56 18.7699 19.1458C18.7699 18.7316 18.4592 18.4209 17.8378 18.2138C17.32 17.9031 16.7505 17.7477 16.1291 17.7477L17.3718 15.8837L20.9446 15.107L20.4786 17.1264C19.6501 17.1264 19.2359 17.3335 19.2359 17.7477L19.8573 18.3691C20.2715 18.7833 20.4786 19.4565 20.4786 20.3885C20.4786 21.1134 20.6857 21.8384 21.1 22.5633C21.5142 23.1846 21.8767 23.4953 22.1873 23.4953C22.2909 23.4953 22.6534 23.34 23.2747 23.0293C23.7925 22.7186 24.4657 22.5633 25.2941 22.5633C25.5013 25.1523 25.6566 27.4306 25.7602 29.3982C25.8637 31.3659 25.9155 32.9193 25.9155 34.0584C25.9155 34.6798 25.5013 35.094 24.6728 35.3012H22.1873C23.2229 36.0261 24.1032 36.6474 24.8281 37.1652ZM13.1776 23.1846L16.1291 22.5633V19.4565H15.8184C15.8184 19.3529 15.7149 19.3012 15.5077 19.3012C15.4042 19.3012 15.3006 19.3529 15.1971 19.4565H14.8864L13.1776 20.0779V21.3206L14.265 20.6992C14.6793 20.6992 15.0935 20.9063 15.5077 21.3206C15.5077 21.7348 15.1971 21.9419 14.5757 21.9419C13.9543 21.9419 13.4883 22.149 13.1776 22.5633V23.1846ZM25.2941 20.6992C24.5692 21.217 23.5336 21.4759 22.1873 21.4759V20.6992C23.0158 20.285 23.6372 20.0779 24.0514 20.0779C24.155 19.9743 24.2068 19.7672 24.2068 19.4565C24.2068 19.0423 23.9479 18.8351 23.4301 18.8351L22.1873 19.1458V18.3691L24.0514 17.7477C24.8799 17.7477 25.2941 18.7316 25.2941 20.6992Z" fill="#20201E"/>
<path fill-rule="evenodd" clip-rule="evenodd" d="M18.6145 37.1652C18.4074 36.6474 18.1485 36.1814 17.8378 35.7672C17.5272 35.2494 17.1647 34.6798 16.7505 34.0584C15.922 34.5762 14.9382 34.9905 13.799 35.3012C15.2488 34.2656 16.3362 33.0228 17.0611 31.573L15.5077 31.7283C15.4042 31.5212 15.1971 31.0552 14.8864 30.3303C14.5757 29.6054 14.2132 28.6215 13.799 27.3788C14.2132 27.1717 14.5239 27.0681 14.731 27.0681C15.0417 27.0681 15.3006 27.1717 15.5077 27.3788L18.6145 26.7575V25.9808L16.1291 26.6021C15.6113 26.6021 15.1971 26.2397 14.8864 25.5147C15.8184 25.5147 17.0611 25.3594 18.6145 25.0487V23.806L17.9932 23.1846C17.9932 22.7704 18.2003 22.5633 18.6145 22.5633C19.8573 22.5633 20.4786 23.1846 20.4786 24.4274L21.566 23.9613C22.3945 23.9613 22.8087 24.3238 22.8087 25.0487L20.4786 25.5147V26.2914C20.8929 26.2914 21.6696 26.0843 22.8087 25.6701L25.2941 27.3788L22.8087 30.4856L22.6534 31.2623H20.4786V31.7283C21.5142 31.8319 22.3427 31.9872 22.964 32.1944C23.689 32.4015 24.2585 32.6086 24.6728 32.8157V33.4371V34.2138C24.6728 34.5245 24.4657 34.6798 24.0514 34.6798C23.6372 34.2655 23.1194 33.8513 22.498 33.4371C21.9802 33.0228 21.3071 32.6086 20.4786 32.1944V34.0584C20.4786 35.6118 20.0644 36.6474 19.2359 37.1652H18.6145ZM22.1873 30.4856H20.4786L22.1873 28.6215C22.1873 28.4144 21.9802 28.1555 21.566 27.8448C21.1518 27.8448 20.9446 28.052 20.9446 28.4662L20.4786 29.2429V27.3788L23.1194 27.0681L22.8087 28.0002C22.7052 28.4144 22.5498 28.8287 22.3427 29.2429C22.2391 29.5536 22.1873 29.9678 22.1873 30.4856ZM16.7505 30.4856H18.6145V27.8448L17.3718 28.1555C17.7861 28.4662 17.9932 29.0358 17.9932 29.8643C17.9932 30.0714 17.8896 30.1749 17.6825 30.1749L17.3718 29.8643L16.7505 28.3109L16.1291 28.4662C16.1291 28.5698 16.1809 28.8287 16.2844 29.2429C16.4916 29.5536 16.6469 29.9678 16.7505 30.4856ZM18.6145 31.7283V34.6798L17.2165 33.7478L18.6145 31.7283Z" fill="#20201E"/>
<path d="M59.5811 28.7172C59.5811 27.925 59.7908 27.156 60.2102 26.4104C60.6451 25.6648 61.1811 25.0279 61.8179 24.4997C62.4548 23.9716 63.1461 23.4201 63.8917 22.8454C64.6374 22.2706 65.3286 21.7502 65.9655 21.2842C66.6024 20.8026 67.1306 20.2512 67.55 19.6298C67.9849 19.0085 68.2024 18.3871 68.2024 17.7657C68.2024 16.8648 67.7752 16.1424 66.9209 15.5988C66.082 15.0395 65.2354 14.7599 64.3811 14.7599C63.7752 14.7599 63.1616 14.8997 62.5403 15.1793C61.9189 15.4434 61.6082 15.824 61.6082 16.3211C61.6082 16.5386 61.515 16.7172 61.3286 16.857C61.1422 16.9968 60.9247 17.0667 60.6762 17.0667C60.4432 17.0667 60.2412 17.0046 60.0704 16.8803C59.915 16.7405 59.8374 16.5463 59.8374 16.2978C59.8529 15.3036 60.3422 14.5114 61.3053 13.9211C62.284 13.3308 63.2704 13.0356 64.2646 13.0356C64.9014 13.0356 65.5383 13.1366 66.1752 13.3386C66.8121 13.5405 67.4102 13.8356 67.9694 14.224C68.5442 14.6123 69.0102 15.1327 69.3675 15.7852C69.7247 16.4221 69.9034 17.1366 69.9034 17.9288C69.9034 18.7522 69.6626 19.5366 69.1811 20.2822C68.715 21.0123 68.117 21.6725 67.3869 22.2628C66.6568 22.8531 65.9112 23.4201 65.15 23.9638C64.4044 24.492 63.682 25.0822 62.983 25.7347C62.284 26.3716 61.7946 27.0007 61.515 27.6221H69.484C69.6859 27.6221 69.8413 27.7075 69.95 27.8784C70.0743 28.0492 70.1364 28.2512 70.1364 28.4842C70.1364 29.0589 69.9189 29.3463 69.484 29.3463H60.6529C59.9383 29.3463 59.5811 29.1366 59.5811 28.7172Z" fill="#20201E"/>
</g>
</g>
<defs>
<filter id="filter0_f_7011_23462" x="2.07107" y="2.84792" width="71.7153" height="92.4272" filterUnits="userSpaceOnUse" color-interpolation-filters="sRGB">
<feFlood flood-opacity="0" result="BackgroundImageFix"/>
<feBlend mode="normal" in="SourceGraphic" in2="BackgroundImageFix" result="shape"/>
<feGaussianBlur stdDeviation="0.2589" result="effect1_foregroundBlur_7011_23462"/>
</filter>
<clipPath id="clip0_7011_23462">
<rect width="80" height="103.56" fill="white"/>
</clipPath>
<clipPath id="clip1_7011_23462">
<rect width="75.5987" height="97.8641" fill="white" transform="translate(-0.129395 0.220215)"/>
</clipPath>
</defs>
</svg>
