<svg width="478" height="244" viewBox="0 0 478 244" fill="none" xmlns="http://www.w3.org/2000/svg">
<path d="M360.941 110.416C360.941 102.064 358.157 99.184 352.877 99.184C349.421 99.184 345.485 101.2 343.661 105.616V134.224C343.661 136.72 346.061 138.64 348.365 139.12C348.845 139.216 349.133 139.504 349.133 140.368V140.848C349.133 141.808 348.845 142 348.269 142C345.293 142 342.221 141.52 339.245 141.52C336.269 141.52 333.389 142 330.413 142C329.837 142 329.549 141.808 329.549 140.848V140.368C329.549 139.504 329.933 139.216 330.701 139.024C332.813 138.448 335.021 136.624 335.021 134.224V106.48C335.021 104.08 333.773 102.352 330.509 101.488C330.029 101.392 329.837 101.008 329.837 100.528V99.76C329.837 99.28 330.125 98.896 330.605 98.8C334.829 97.936 338.957 95.152 340.973 93.136C341.357 92.752 341.837 92.848 342.413 93.04C343.085 93.328 343.277 93.712 343.277 94.192V100.624C346.541 95.344 351.245 93.04 356.237 93.04C365.453 93.04 369.581 98.704 369.581 108.88V134.224C369.581 136.72 371.981 138.64 374.285 139.12C374.765 139.216 375.053 139.504 375.053 140.368V140.848C375.053 141.808 374.765 142 374.189 142C371.213 142 368.141 141.52 365.165 141.52C362.189 141.52 359.309 142 356.333 142C355.757 142 355.469 141.808 355.469 140.848V140.368C355.469 139.504 355.853 139.216 356.621 139.024C358.733 138.448 360.941 136.624 360.941 134.224V110.416Z" fill="#F5511C"/>
<path d="M301.856 106.48C301.856 104.08 300.608 102.352 297.344 101.488C296.864 101.392 296.672 101.008 296.672 100.528V99.76C296.672 99.28 296.96 98.896 297.44 98.8C301.664 97.936 305.792 95.152 307.808 93.136C308.192 92.752 308.672 92.848 309.248 93.04C309.92 93.328 310.112 93.712 310.112 94.192V100.912C313.28 96.304 318.08 93.04 321.728 93.04C326.624 93.04 329.024 95.824 329.024 99.76C329.024 102.736 327.2 105.136 324.512 105.136C320.192 105.136 320.768 100.432 316.16 100.432C313.664 100.432 311.744 102.256 310.496 105.616V134.224C310.496 136.72 312.896 138.64 316.064 139.12C316.544 139.216 316.832 139.504 316.832 140.368V140.848C316.832 141.808 316.544 142 315.968 142C312.128 142 309.056 141.52 306.08 141.52C303.104 141.52 300.224 142 297.248 142C296.672 142 296.384 141.808 296.384 140.848V140.368C296.384 139.504 296.768 139.216 297.536 139.024C299.648 138.448 301.856 136.624 301.856 134.224V106.48Z" fill="#F5511C"/>
<path d="M274.41 143.44C261.93 143.44 253.866 133.552 253.866 118.48C253.866 103.12 261.93 93.04 274.314 93.04C286.602 93.04 294.474 102.928 294.474 117.808C294.474 133.264 286.602 143.44 274.41 143.44ZM274.89 140.464C281.418 140.464 285.066 132.496 285.066 118.96C285.066 104.464 280.938 96.016 273.93 96.016C267.21 96.016 263.274 102.832 263.274 117.616C263.274 132.016 267.594 140.464 274.89 140.464Z" fill="#F5511C"/>
<path d="M241.196 110.416C241.196 102.064 238.412 99.184 233.132 99.184C229.676 99.184 225.74 101.2 223.916 105.616V134.224C223.916 136.72 226.316 138.64 228.62 139.12C229.1 139.216 229.388 139.504 229.388 140.368V140.848C229.388 141.808 229.1 142 228.524 142C225.548 142 222.476 141.52 219.5 141.52C216.524 141.52 213.644 142 210.668 142C210.092 142 209.804 141.808 209.804 140.848V140.368C209.804 139.504 210.188 139.216 210.956 139.024C213.068 138.448 215.276 136.624 215.276 134.224V79.312C215.276 76.912 213.836 75.184 210.764 74.32C210.284 74.224 210.092 73.84 210.092 73.36V72.592C210.092 72.112 210.38 71.728 210.86 71.632C215.468 70.672 218.444 69.424 221.228 67.6C221.612 67.312 222.092 67.312 222.38 67.408L222.86 67.6C223.34 67.792 223.532 68.176 223.532 68.656V100.624C226.796 95.344 231.5 93.04 236.492 93.04C245.708 93.04 249.836 98.704 249.836 108.88V134.224C249.836 136.72 252.236 138.64 254.54 139.12C255.02 139.216 255.308 139.504 255.308 140.368V140.848C255.308 141.808 255.02 142 254.444 142C251.468 142 248.396 141.52 245.42 141.52C242.444 141.52 239.564 142 236.588 142C236.012 142 235.724 141.808 235.724 140.848V140.368C235.724 139.504 236.108 139.216 236.876 139.024C238.988 138.448 241.196 136.624 241.196 134.224V110.416Z" fill="#F5511C"/>
<path d="M198.829 143.44C192.205 143.44 188.749 139.408 188.749 127.792V98.32C187.021 98.32 185.965 98.512 184.909 98.512C183.757 98.512 183.565 98.032 183.565 97.36V96.976C183.565 96.304 183.853 96.112 185.197 95.44C187.597 94.288 190.957 91.504 194.989 83.728C195.277 83.152 195.853 83.152 196.237 83.344L196.717 83.536C197.197 83.728 197.389 84.112 197.389 84.592V94.192C201.037 94.096 203.341 94 205.837 93.808C207.661 93.712 208.237 94 208.237 95.056V96.592C208.237 97.648 207.661 98.224 205.933 98.224L197.389 98.128V124.528C197.389 134.512 198.829 137.488 202.573 137.488C203.821 137.488 205.357 137.008 206.989 135.952C207.565 135.568 208.141 135.376 208.621 135.952L209.005 136.432C209.389 136.912 209.485 137.488 209.005 138.16C206.893 141.232 202.765 143.44 198.829 143.44Z" fill="#F5511C"/>
<path d="M178.062 142.96C174.894 142.96 171.918 141.328 170.574 135.568C166.446 140.656 161.358 143.44 156.27 143.44C150.414 143.44 147.246 139.216 147.246 134.128C147.246 127.792 152.334 121.456 169.902 114.736L169.998 108.304C170.286 98.704 168.366 96.304 164.43 96.304C156.366 96.304 159.342 109.456 152.622 109.456C150.798 109.456 149.07 108.208 149.07 105.136C149.07 98.608 156.846 93.04 165.39 93.04C174.702 93.04 178.926 97.264 178.638 106.96L178.446 125.392C178.542 135.568 179.214 137.104 180.942 137.104C181.71 137.104 182.382 136.72 182.958 135.952C183.246 135.568 183.822 135.28 184.59 135.76L184.878 135.952C185.646 136.432 185.55 136.912 185.262 137.776C184.206 140.944 181.806 142.96 178.062 142.96ZM156.462 132.304C156.462 135.664 158.382 137.584 161.07 137.584C163.95 137.584 167.31 135.376 169.998 131.728C169.902 130.384 169.806 128.848 169.806 127.12V118.576C160.014 122.224 156.462 127.12 156.462 132.304Z" fill="#F5511C"/>
<path d="M125.33 143.44C117.746 143.44 108.53 140.848 106.61 139.12C105.65 138.256 105.362 137.392 105.362 136.048V120.88C105.362 120.208 105.842 119.728 106.514 119.728H107.186C107.858 119.728 108.338 120.016 108.53 120.688C111.698 134.128 118.13 139.792 126.29 139.792C133.586 139.792 137.426 134.32 137.426 128.56C137.426 112.432 106.898 105.904 106.898 87.184C106.898 77.776 113.33 71.056 124.946 71.056C131.378 71.056 137.906 72.976 140.402 75.088C141.362 75.952 141.65 76.816 141.65 78.16V89.968C141.65 90.64 141.17 91.12 140.498 91.12H139.73C139.058 91.12 138.578 90.832 138.386 90.16C135.122 78.736 130.514 74.704 123.89 74.704C118.706 74.704 115.154 78.352 115.154 83.728C115.154 98.896 145.778 104.464 145.778 124.912C145.778 134.512 139.154 143.44 125.33 143.44Z" fill="#F5511C"/>
<path d="M454.575 222.44C446.895 222.44 444.399 218.12 441.615 218.12C440.175 218.12 439.407 218.504 438.735 219.944C438.351 220.712 437.871 221 437.103 221H436.623C435.663 221 435.183 220.424 435.279 219.464C435.471 217.832 435.567 213.416 435.567 211.784V158.312C435.567 155.912 434.127 154.184 431.055 153.32C430.575 153.224 430.383 152.84 430.383 152.36V151.592C430.383 151.112 430.671 150.728 431.151 150.632C435.759 149.672 438.735 148.424 441.519 146.6C441.903 146.312 442.383 146.312 442.671 146.408L443.151 146.6C443.631 146.792 443.823 147.176 443.823 147.656V177.608C447.183 173.768 451.503 172.04 456.591 172.04C468.015 172.04 475.983 180.488 475.983 195.464C475.983 213.992 465.423 222.44 454.575 222.44ZM444.207 212.648C446.799 216.872 451.023 218.792 454.959 218.792C461.007 218.792 466.575 213.8 466.575 197.768C466.575 182.696 461.295 176.936 453.807 176.936C450.255 176.936 446.607 178.568 444.207 181.544V212.648Z" fill="#F5511C"/>
<path d="M405.346 222.44C396.13 222.44 392.002 216.008 392.002 206.6V180.776C392.002 178.28 389.602 176.36 387.298 175.88C386.818 175.784 386.53 175.496 386.53 174.632V174.152C386.53 173.192 386.818 173 387.394 173C389.506 173 391.618 173.48 394.786 173.48C396.226 173.48 397.762 173.288 399.682 173.288C401.986 173.288 400.642 175.304 400.642 182.696V203.336C400.642 212.648 403.81 216.296 408.898 216.296C412.354 216.296 416.194 214.28 417.922 209.864V180.776C417.922 178.28 415.522 176.36 413.218 175.88C412.738 175.784 412.45 175.496 412.45 174.632V174.152C412.45 173.192 412.738 173 413.314 173C415.426 173 417.538 173.48 420.706 173.48C422.146 173.48 423.682 173.288 425.602 173.288C427.906 173.288 426.562 175.304 426.562 182.696V208.424C426.562 212.36 427.81 214.088 431.074 214.952C431.554 215.048 431.746 215.432 431.746 215.912V216.68C431.746 217.16 431.458 217.544 430.978 217.64C427.714 218.024 422.818 219.752 420.802 221.672C420.322 222.056 419.938 222.152 419.17 221.864C418.498 221.576 418.306 221.192 418.306 220.712V214.856C415.042 220.136 410.338 222.44 405.346 222.44Z" fill="#F5511C"/>
<path d="M368.292 221C367.716 221 367.428 220.808 367.428 219.848V219.368C367.428 218.504 367.812 218.216 368.58 218.024C370.692 217.448 372.9 215.624 372.9 213.224V158.312C372.9 155.912 371.46 154.184 368.388 153.32C367.908 153.224 367.716 152.84 367.716 152.36V151.592C367.716 151.112 368.004 150.728 368.484 150.632C373.092 149.672 376.452 148.424 379.236 146.6C379.62 146.312 380.1 146.312 380.388 146.408L380.868 146.6C381.348 146.792 381.54 147.176 381.54 147.656V213.224C381.54 215.72 383.94 217.64 386.244 218.12C386.724 218.216 387.012 218.504 387.012 219.368V219.848C387.012 220.808 386.724 221 386.148 221C383.172 221 380.1 220.52 377.124 220.52C374.148 220.52 371.268 221 368.292 221Z" fill="#F5511C"/>
<path d="M346.348 222.44C331.852 222.44 319.66 209.384 319.66 185.384C319.66 162.248 330.412 150.056 346.252 150.056C352.588 150.056 359.212 151.784 362.284 153.704C363.34 154.376 363.628 155.144 363.628 156.488V169.16C363.628 169.832 363.148 170.312 362.476 170.312H361.804C361.132 170.312 360.652 170.024 360.46 169.352C357.1 157.448 351.724 153.704 345.1 153.704C336.076 153.704 330.316 162.536 330.316 181.16C330.316 205.064 340.3 215.912 350.38 215.912C355.468 215.912 359.308 213.896 363.436 209.096C363.916 208.52 364.684 208.328 365.26 208.808L365.932 209.288C366.604 209.768 366.604 210.344 365.932 211.208C360.364 219.368 353.74 222.44 346.348 222.44Z" fill="#F5511C"/>
<path d="M275.632 242.792C263.728 242.696 258.64 236.552 258.64 230.696C258.64 227.048 259.888 223.592 266.896 218.984C266.032 218.696 265.36 217.64 263.92 215.336L261.52 211.496C260.176 209.288 260.464 208.136 263.056 206.12C264.592 204.968 267.856 203.24 270.16 201.896C265.264 199.208 262.096 194.216 262.096 188.072C262.096 177.704 268.816 171.464 278.704 171.464C283.312 171.464 287.248 173.864 291.28 173.864L297.52 173.672C299.344 173.672 299.92 174.056 299.92 175.112V176.648C299.92 177.704 299.344 178.376 297.616 178.28L291.856 178.088C294.16 180.776 295.024 184.04 295.024 187.496C295.024 198.248 288.304 204.008 278.512 204.008H278.128C271.312 204.008 269.008 206.024 269.008 207.752C269.008 213.8 298 200.072 298 223.4C298 233.96 289.84 242.888 275.632 242.792ZM278.896 201.032C283.6 201.032 286.192 195.752 286.192 188.168C286.192 179.432 282.928 174.44 278.224 174.44C273.712 174.44 270.832 179.24 270.832 187.4C270.832 196.424 274.288 201.032 278.896 201.032ZM267.28 226.952C267.28 233.384 271.312 238.28 279.28 238.376C287.728 238.472 292.432 233.288 292.432 227.432C292.432 216.008 281.488 217.256 272.464 218.504C269.2 220.136 267.28 223.4 267.28 226.952Z" fill="#F5511C"/>
<path d="M246.379 189.416C246.379 181.064 243.595 178.184 238.315 178.184C234.859 178.184 230.923 180.2 229.099 184.616V213.224C229.099 215.72 231.499 217.64 233.803 218.12C234.283 218.216 234.571 218.504 234.571 219.368V219.848C234.571 220.808 234.283 221 233.707 221C230.731 221 227.659 220.52 224.683 220.52C221.707 220.52 218.827 221 215.851 221C215.275 221 214.987 220.808 214.987 219.848V219.368C214.987 218.504 215.371 218.216 216.139 218.024C218.251 217.448 220.459 215.624 220.459 213.224V185.48C220.459 183.08 219.211 181.352 215.947 180.488C215.467 180.392 215.275 180.008 215.275 179.528V178.76C215.275 178.28 215.563 177.896 216.043 177.8C220.267 176.936 224.395 174.152 226.411 172.136C226.795 171.752 227.275 171.848 227.851 172.04C228.523 172.328 228.715 172.712 228.715 173.192V179.624C231.979 174.344 236.683 172.04 241.675 172.04C250.891 172.04 255.019 177.704 255.019 187.88V213.224C255.019 215.72 257.419 217.64 259.723 218.12C260.203 218.216 260.491 218.504 260.491 219.368V219.848C260.491 220.808 260.203 221 259.627 221C256.651 221 253.579 220.52 250.603 220.52C247.627 220.52 244.747 221 241.771 221C241.195 221 240.907 220.808 240.907 219.848V219.368C240.907 218.504 241.291 218.216 242.059 218.024C244.171 217.448 246.379 215.624 246.379 213.224V189.416Z" fill="#F5511C"/>
<path d="M193.013 222.44C180.533 222.44 172.469 212.552 172.469 197.48C172.469 182.12 180.533 172.04 192.917 172.04C205.205 172.04 213.077 181.928 213.077 196.808C213.077 212.264 205.205 222.44 193.013 222.44ZM193.493 219.464C200.021 219.464 203.669 211.496 203.669 197.96C203.669 183.464 199.541 175.016 192.533 175.016C185.813 175.016 181.877 181.832 181.877 196.616C181.877 211.016 186.197 219.464 193.493 219.464Z" fill="#F5511C"/>
<path d="M150.719 240.392C143.903 240.392 141.119 236.072 141.119 232.616C141.119 229.832 143.039 226.664 145.727 226.664C152.447 226.664 148.799 236.168 153.503 236.168C156.095 236.168 157.055 233.768 157.055 221.576V186.44C157.055 184.04 155.807 182.312 152.543 181.448C152.063 181.352 151.871 180.968 151.871 180.488V179.72C151.871 179.24 152.159 178.952 152.639 178.76C155.615 177.8 160.607 174.92 163.391 172.136C163.775 171.752 164.255 171.848 164.831 172.04C165.503 172.328 165.695 172.712 165.695 173.192V216.68C165.695 231.176 160.511 240.392 150.719 240.392ZM160.703 165.416C157.247 165.416 154.943 162.728 154.943 158.6C154.943 154.568 157.247 151.88 160.703 151.88C164.159 151.88 166.367 154.568 166.367 158.6C166.367 162.728 164.159 165.416 160.703 165.416Z" fill="#F5511C"/>
<path d="M136.102 189.416C136.102 181.064 133.318 178.184 128.038 178.184C124.582 178.184 120.646 180.2 118.822 184.616V213.224C118.822 215.72 121.222 217.64 123.526 218.12C124.006 218.216 124.294 218.504 124.294 219.368V219.848C124.294 220.808 124.006 221 123.43 221C120.454 221 117.382 220.52 114.406 220.52C111.43 220.52 108.55 221 105.574 221C104.998 221 104.71 220.808 104.71 219.848V219.368C104.71 218.504 105.094 218.216 105.862 218.024C107.974 217.448 110.182 215.624 110.182 213.224V158.312C110.182 155.912 108.742 154.184 105.67 153.32C105.19 153.224 104.998 152.84 104.998 152.36V151.592C104.998 151.112 105.286 150.728 105.766 150.632C110.374 149.672 113.35 148.424 116.134 146.6C116.518 146.312 116.998 146.312 117.286 146.408L117.766 146.6C118.246 146.792 118.438 147.176 118.438 147.656V179.624C121.702 174.344 126.406 172.04 131.398 172.04C140.614 172.04 144.742 177.704 144.742 187.88V213.224C144.742 215.72 147.142 217.64 149.446 218.12C149.926 218.216 150.214 218.504 150.214 219.368V219.848C150.214 220.808 149.926 221 149.35 221C146.374 221 143.302 220.52 140.326 220.52C137.35 220.52 134.47 221 131.494 221C130.918 221 130.63 220.808 130.63 219.848V219.368C130.63 218.504 131.014 218.216 131.782 218.024C133.894 217.448 136.102 215.624 136.102 213.224V189.416Z" fill="#F5511C"/>
<path d="M96.8526 221.96C93.6846 221.96 90.7086 220.328 89.3646 214.568C85.2366 219.656 80.1486 222.44 75.0606 222.44C69.2046 222.44 66.0366 218.216 66.0366 213.128C66.0366 206.792 71.1246 200.456 88.6926 193.736L88.7886 187.304C89.0766 177.704 87.1566 175.304 83.2206 175.304C75.1566 175.304 78.1326 188.456 71.4126 188.456C69.5886 188.456 67.8606 187.208 67.8606 184.136C67.8606 177.608 75.6366 172.04 84.1806 172.04C93.4926 172.04 97.7166 176.264 97.4286 185.96L97.2366 204.392C97.3326 214.568 98.0046 216.104 99.7326 216.104C100.501 216.104 101.173 215.72 101.749 214.952C102.037 214.568 102.613 214.28 103.381 214.76L103.669 214.952C104.437 215.432 104.341 215.912 104.053 216.776C102.997 219.944 100.597 221.96 96.8526 221.96ZM75.2526 211.304C75.2526 214.664 77.1726 216.584 79.8606 216.584C82.7406 216.584 86.1006 214.376 88.7886 210.728C88.6926 209.384 88.5966 207.848 88.5966 206.12V197.576C78.8046 201.224 75.2526 206.12 75.2526 211.304Z" fill="#F5511C"/>
<path d="M1.45189 221C0.875891 221 0.587891 220.808 0.587891 219.848V219.368C0.587891 218.504 0.875891 218.216 1.35589 218.12C4.61989 217.544 6.73189 216.296 6.82789 212.552L8.84389 159.08C8.93989 156.2 7.01989 154.664 3.27589 153.992C2.79589 153.896 2.50789 153.608 2.50789 152.744V152.264C2.50789 151.304 2.79589 151.112 3.37189 151.112C8.45989 151.4 13.4519 151.4 18.5399 151.112L32.7479 198.728L47.8199 151.112C52.7159 151.4 57.5159 151.4 62.4119 151.112C62.9879 151.112 63.2759 151.304 63.2759 152.264V152.744C63.2759 153.608 62.9879 153.896 62.5079 153.992C58.8599 154.664 56.8439 156.296 56.9399 158.888L58.3799 213.224C58.4759 216.104 59.7239 217.448 63.8519 218.12C64.3319 218.216 64.6199 218.504 64.6199 219.368V219.848C64.6199 220.808 64.3319 221 63.7559 221C60.2999 221 57.2279 220.52 53.7719 220.52C50.3159 220.52 47.4359 221 43.0199 221C42.4439 221 42.1559 220.808 42.1559 219.848V219.368C42.1559 218.504 42.5399 218.216 43.3079 218.12C47.9159 217.256 48.8759 215.912 48.7799 213.224L47.5319 164.744L31.5959 215.24C31.4039 215.816 31.0199 216.2 30.3479 216.2H29.0039C28.3319 216.2 27.9479 215.816 27.7559 215.24L12.2999 165.224L10.6679 213.224C10.5719 216.104 11.8199 217.352 17.0999 218.12C17.8679 218.216 18.2519 218.504 18.2519 219.368V219.848C18.2519 220.808 17.9639 221 17.3879 221C14.4119 221 11.5319 220.52 8.55589 220.52C6.15589 220.52 3.85189 221 1.45189 221Z" fill="#F5511C"/>
<path d="M264.451 56.84C259.859 56.728 257.619 53.312 257.787 47.992C258.123 38.92 265.067 27.552 273.691 27.552C278.171 27.552 279.627 29.792 279.515 32.144C279.403 34.832 276.771 39.48 263.779 43.008C263.387 44.688 263.163 46.256 263.107 47.544C262.883 51.688 264.059 53.76 266.299 53.816C268.483 53.872 271.899 51.8 274.587 48.216C274.811 47.88 275.147 47.88 275.427 48.048L275.707 48.216C276.043 48.44 276.155 48.72 275.931 49.056C272.291 54.824 267.419 56.896 264.451 56.84ZM264.171 41.384C271.955 38.92 274.475 35.168 274.587 31.696C274.643 30.072 273.971 29.12 272.627 29.12C269.043 29.12 265.851 35.504 264.171 41.384Z" fill="#F5511C"/>
<path d="M245.392 56.84C243.096 56.84 242.816 54.992 244.216 50.904L249.312 35.896C250.152 33.376 249.984 31.976 248.864 31.976C246.68 31.976 241.416 39.48 234.864 55.048C234.64 55.776 234.08 56 233.632 56H231C230.216 56 229.824 55.44 230.048 54.712L240.8 19.432C241.248 18.032 240.744 16.8 239.12 16.52C238.784 16.464 238.728 16.296 238.84 16.016L239.008 15.456C239.12 15.064 239.344 15.008 239.624 14.952C242.424 14.392 244.552 13.664 246.456 12.6C246.736 12.432 246.848 12.376 247.128 12.488L247.352 12.6C247.632 12.712 247.688 12.88 247.576 13.216L238 44.688C244.888 30.8 249.872 27.552 253.064 27.552C255.472 27.552 256.48 29.4 255.08 33.488L249.984 48.496C247.968 54.432 250.376 53.704 254.128 48.16C254.352 47.824 254.632 47.768 254.912 47.992L255.192 48.216C255.584 48.496 255.472 48.888 254.856 49.728C251.272 54.88 247.632 56.84 245.392 56.84Z" fill="#F5511C"/>
<path d="M205.272 56C204.936 56 204.824 55.888 204.992 55.328L205.104 54.936C205.216 54.432 205.496 54.376 205.944 54.264C207.792 53.928 209.248 53.144 209.808 51.464L219.496 19.768C220 18.144 219.16 17.36 216.92 17.36H215.744C212.832 17.36 209.864 18.872 207.008 25.032C206.784 25.48 206.504 25.704 206.168 25.704H205.552C205.104 25.704 204.936 25.48 205.048 25.2L207.848 17.024C208.352 15.624 208.744 15.232 210.704 15.232C215.52 15.288 216.864 15.4 221.344 15.4H225.936C230.416 15.4 231.76 15.288 236.632 15.232C238.648 15.232 238.76 15.624 238.424 17.024L236.464 25.2C236.408 25.48 236.072 25.704 235.792 25.704H235.176C234.784 25.704 234.616 25.48 234.672 25.032C235.568 18.872 233.216 17.36 230.36 17.36H229.128C226.944 17.36 225.544 17.696 225.04 19.432L215.184 51.744C214.68 53.424 215.8 54.04 217.592 54.32C217.816 54.376 217.928 54.432 217.816 54.936L217.704 55.328C217.536 55.944 217.312 56 217.032 56C214.792 56 213.112 55.72 211.152 55.72C209.192 55.72 207.512 56 205.272 56Z" fill="#F5511C"/>
</svg>
