<svg width="423" height="538" viewBox="0 0 423 538" fill="none" xmlns="http://www.w3.org/2000/svg">
<rect width="423" height="538" rx="31" fill="#EBB2B9"/>
<path d="M396.863 503.336C392.329 509.279 385.142 497.392 376.96 497.392C368.778 497.392 368.778 504.992 360.596 504.992C352.413 504.992 352.413 497.392 344.231 497.392C336.049 497.392 336.049 504.992 327.867 504.992C319.685 504.992 319.685 497.392 311.502 497.392C303.32 497.392 303.32 504.992 295.138 504.992C286.956 504.992 286.956 497.392 278.774 497.392C270.592 497.392 270.592 504.992 262.409 504.992C254.227 504.992 254.227 497.392 246.045 497.392C237.863 497.392 237.863 504.992 229.681 504.992C221.499 504.992 221.499 497.392 213.316 497.392C205.134 497.392 205.134 504.992 196.952 504.992C188.77 504.992 188.77 497.392 180.588 497.392C172.405 497.392 172.405 504.992 164.223 504.992C156.041 504.992 156.041 497.392 147.859 497.392C139.677 497.392 139.677 504.992 131.494 504.992C123.312 504.992 123.312 497.392 115.13 497.392C106.948 497.392 106.948 504.992 98.7657 504.992C90.5835 504.992 90.5835 497.392 82.4013 497.392C74.2191 497.392 74.2191 504.992 66.0369 504.992C57.8547 504.992 57.8547 497.392 49.6726 497.392C41.4904 497.392 34.3033 509.279 29.7699 503.336C23.0252 494.567 37.731 490.572 37.731 479.952C37.731 469.332 29.1065 469.332 29.1065 458.712C29.1065 448.092 37.731 448.092 37.731 437.471C37.731 426.851 29.1065 426.851 29.1065 416.231C29.1065 405.611 37.731 405.611 37.731 394.991C37.731 384.371 29.1065 384.371 29.1065 373.75C29.1065 363.13 37.731 363.13 37.731 352.51C37.731 341.89 29.1065 341.89 29.1065 331.27C29.1065 320.65 37.731 320.65 37.731 310.029C37.731 299.409 29.1065 299.409 29.1065 288.789C29.1065 278.169 37.731 278.169 37.731 267.549C37.731 256.929 29.1065 256.929 29.1065 246.308C29.1065 235.688 37.731 235.688 37.731 225.068C37.731 214.448 29.1065 214.448 29.1065 203.828C29.1065 193.208 37.731 193.208 37.731 182.587C37.731 171.967 29.1065 171.967 29.1065 161.347C29.1065 150.727 37.731 150.727 37.731 140.107C37.731 129.487 29.1065 129.487 29.1065 118.866C29.1065 108.246 37.731 108.246 37.731 97.6261C37.731 87.0059 29.1065 87.0059 29.1065 76.3858C29.1065 65.7656 37.731 65.7656 37.731 55.048C37.731 44.3304 23.0252 40.4331 29.7699 31.6642C34.3033 25.7208 41.4904 37.6075 49.6726 37.6075C57.8547 37.6075 57.8547 30.0078 66.0369 30.0078C74.2191 30.0078 74.2191 37.6075 82.4013 37.6075C90.5835 37.6075 90.5835 30.0078 98.7657 30.0078C106.948 30.0078 106.948 37.6075 115.13 37.6075C123.312 37.6075 123.312 30.0078 131.494 30.0078C139.677 30.0078 139.677 37.6075 147.859 37.6075C156.041 37.6075 156.041 30.0078 164.223 30.0078C172.405 30.0078 172.405 37.6075 180.588 37.6075C188.77 37.6075 188.77 30.0078 196.952 30.0078C205.134 30.0078 205.134 37.6075 213.316 37.6075C221.499 37.6075 221.499 30.0078 229.681 30.0078C237.863 30.0078 237.863 37.6075 246.045 37.6075C254.227 37.6075 254.227 30.0078 262.409 30.0078C270.592 30.0078 270.592 37.6075 278.774 37.6075C286.956 37.6075 286.956 30.0078 295.138 30.0078C303.32 30.0078 303.32 37.6075 311.502 37.6075C319.685 37.6075 319.685 30.0078 327.867 30.0078C336.049 30.0078 336.049 37.6075 344.231 37.6075C352.413 37.6075 352.413 30.0078 360.596 30.0078C368.778 30.0078 368.778 37.6075 376.96 37.6075C385.142 37.6075 392.329 25.7208 396.863 31.6642C403.607 40.4331 388.901 44.4278 388.901 55.048C388.901 65.6682 397.526 65.6682 397.526 76.2883C397.526 86.9085 388.901 86.9085 388.901 97.5287C388.901 108.149 397.526 108.149 397.526 118.769C397.526 129.389 388.901 129.389 388.901 140.009C388.901 150.629 397.526 150.629 397.526 161.25C397.526 171.87 388.901 171.87 388.901 182.49C388.901 193.11 397.526 193.11 397.526 203.73C397.526 214.35 388.901 214.35 388.901 224.971C388.901 235.591 397.526 235.591 397.526 246.211C397.526 256.831 388.901 256.831 388.901 267.451C388.901 278.072 397.526 278.072 397.526 288.692C397.526 299.312 388.901 299.312 388.901 309.932C388.901 320.552 397.526 320.552 397.526 331.172C397.526 341.792 388.901 341.792 388.901 352.413C388.901 363.033 397.526 363.033 397.526 373.653C397.526 384.273 388.901 384.273 388.901 394.893C388.901 405.513 397.526 405.513 397.526 416.134C397.526 426.754 388.901 426.754 388.901 437.374C388.901 447.994 397.526 447.994 397.526 458.614C397.526 469.234 386.027 470.501 389.012 480.829C392.55 492.911 403.607 494.567 396.863 503.336Z" stroke="#F5511C" stroke-width="4.82233" stroke-miterlimit="10"/>
</svg>
